<?xml version="1.0" encoding="UTF-8"?>
<svg xmlns="http://www.w3.org/2000/svg" xmlns:xlink="http://www.w3.org/1999/xlink" width="2250" height="2250" viewBox="0 0 2250 2250">
<path fill-rule="nonzero" fill="rgb(100%, 100%, 100%)" fill-opacity="1" d="M 0 1.941406 C 0 0.871094 0.867188 0 1.9375 0 L 2248.058594 0 C 2248.578125 0 2249.070312 0.199219 2249.429688 0.570312 C 2249.800781 0.929688 2250 1.421875 2250 1.941406 L 2250 2248.0625 C 2250 2248.574219 2249.800781 2249.066406 2249.429688 2249.433594 C 2249.070312 2249.796875 2248.578125 2250 2248.058594 2250 L 1.9375 2250 C 1.425781 2250 0.933594 2249.796875 0.566406 2249.433594 C 0.203125 2249.066406 0 2248.574219 0 2248.0625 L 0 1.941406 "/>
<path fill="none" stroke-width="600.001" stroke-linecap="round" stroke-linejoin="round" stroke="rgb(0%, 0%, 0%)" stroke-opacity="1" stroke-miterlimit="4" d="M 5826.210938 11295 L 13120.507812 11295 M 14689.6875 11295 L 16673.789062 11295 M 14602.8125 11250 C 14602.8125 11058.789062 14527.890625 10875.507812 14394.414062 10740.390625 C 14260.898438 10605.195312 14079.882812 10529.296875 13891.09375 10529.296875 C 13702.382812 10529.296875 13521.40625 10605.195312 13387.890625 10740.390625 C 13254.414062 10875.507812 13179.414062 11058.789062 13179.414062 11250 C 13179.414062 11441.210938 13254.414062 11624.492188 13387.890625 11759.609375 C 13521.40625 11894.804688 13702.382812 11970.703125 13891.09375 11970.703125 C 14079.882812 11970.703125 14260.898438 11894.804688 14394.414062 11759.609375 C 14527.890625 11624.492188 14602.8125 11441.210938 14602.8125 11250 Z M 5826.445312 7961.601562 L 8428.007812 7961.601562 M 10024.101562 7961.601562 L 16673.515625 7961.601562 M 9917.421875 7961.601562 C 9917.421875 7770.46875 9842.421875 7587.148438 9708.945312 7451.953125 C 9575.507812 7316.796875 9394.453125 7240.859375 9205.703125 7240.859375 C 9016.953125 7240.859375 8835.9375 7316.796875 8702.460938 7451.953125 C 8568.984375 7587.148438 8494.023438 7770.46875 8494.023438 7961.601562 C 8494.023438 8359.6875 8812.65625 8682.34375 9205.703125 8682.34375 C 9394.453125 8682.34375 9575.507812 8606.40625 9708.945312 8471.25 C 9842.421875 8336.09375 9917.421875 8152.773438 9917.421875 7961.601562 Z M 5826.132812 14538.398438 L 8602.421875 14538.398438 M 10293.515625 14538.398438 L 16673.90625 14538.398438 M 10104.804688 14538.398438 C 10104.804688 14347.1875 10029.804688 14163.90625 9896.367188 14028.789062 C 9762.890625 13893.59375 9581.875 13817.617188 9393.125 13817.617188 C 9204.375 13817.617188 9023.359375 13893.59375 8889.882812 14028.789062 C 8756.40625 14163.90625 8681.40625 14347.1875 8681.40625 14538.398438 C 8681.40625 14936.40625 9000.039062 15259.101562 9393.125 15259.101562 C 9786.171875 15259.101562 10104.804688 14936.40625 10104.804688 14538.398438 Z M 10104.804688 14538.398438 " transform="matrix(0.1, 0, 0, -0.1, 0, 2250)"/>
</svg>
